0
SECTION
2
HEADER
9
$INSUNITS
70
4
9
$ACADVER
1
AC1014
9
$HANDSEED
5
FFFF
0
ENDSEC
0
SECTION
2
TABLES
0
TABLE
2
VPORT
5
8
100
AcDbSymbolTable
0
ENDTAB
0
TABLE
2
LTYPE
5
5
100
AcDbSymbolTable
0
LTYPE
5
14
100
AcDbSymbolTableRecord
100
AcDbLinetypeTableRecord
2
BYBLOCK
70
0
0
LTYPE
5
15
100
AcDbSymbolTableRecord
100
AcDbLinetypeTableRecord
2
BYLAYER
70
0
0
ENDTAB
0
TABLE
2
LAYER
5
2
100
AcDbSymbolTable
70
2
0
LAYER
5
50
100
AcDbSymbolTableRecord
100
AcDbLayerTableRecord
2
0
70
0
6
CONTINUOUS
0
ENDTAB
0
TABLE
2
STYLE
5
3
100
AcDbSymbolTable
70
1
0
STYLE
5
11
100
AcDbSymbolTableRecord
100
AcDbTextStyleTableRecord
2
STANDARD
70
0
0
ENDTAB
0
TABLE
2
VIEW
5
6
100
AcDbSymbolTable
70
0
0
ENDTAB
0
TABLE
2
UCS
5
7
100
AcDbSymbolTable
70
0
0
ENDTAB
0
TABLE
2
APPID
5
9
100
AcDbSymbolTable
70
2
0
APPID
5
12
100
AcDbSymbolTableRecord
100
AcDbRegAppTableRecord
2
ACAD
70
0
0
ENDTAB
0
TABLE
2
DIMSTYLE
5
A
100
AcDbSymbolTable
70
1
0
ENDTAB
0
TABLE
2
BLOCK_RECORD
5
1
100
AcDbSymbolTable
70
1
0
BLOCK_RECORD
5
1F
100
AcDbSymbolTableRecord
100
AcDbBlockTableRecord
2
*MODEL_SPACE
0
BLOCK_RECORD
5
1B
100
AcDbSymbolTableRecord
100
AcDbBlockTableRecord
2
*PAPER_SPACE
0
ENDTAB
0
ENDSEC
0
SECTION
2
BLOCKS
0
BLOCK
5
20
100
AcDbEntity
100
AcDbBlockBegin
2
*MODEL_SPACE
0
ENDBLK
5
21
100
AcDbEntity
100
AcDbBlockEnd
0
BLOCK
5
1C
100
AcDbEntity
100
AcDbBlockBegin
2
*PAPER_SPACE
0
ENDBLK
5
1D
100
AcDbEntity
100
AcDbBlockEnd
0
ENDSEC
0
SECTION
2
ENTITIES
0
LWPOLYLINE
5
100
100
AcDbEntity
8
0
100
AcDbPolyline
90
48
70
1
43
0.0
10
170.02292571208753
20
-307.99999977231369
42
0.41421356237307422
10
172.02292571208733
20
-309.99999977231374
10
174.04292568108545
20
-309.99999977231386
42
-0.414213562373069
10
176.04292568108525
20
-311.99999977231386
10
176.04292568108522
20
-344.00046779321679
42
0.41421356237309503
10
178.04292568108522
20
-346.00046779321679
10
229.05605400125609
20
-346.00046779321673
42
-0.34199871311964125
10
230.9925456743598
20
-347.50046779321673
42
0.34199871311964125
10
232.92903734746352
20
-349.00046779321667
10
328.02249443359068
20
-349.0004677932165
42
0.41421356237309503
10
330.02249443359068
20
-347.00046779321644
10
330.02249443359108
20
-236.00000000323331
42
0.41421356237309503
10
328.02249443359074
20
-234.00000000323331
10
280.02028483223916
20
-234.00000000323342
42
-0.41421356237309503
10
278.02028483223916
20
-232.00000000323342
10
278.02028483223916
20
-221.00000000323337
42
-0.41421356237309503
10
280.02028483223916
20
-219.00000000323337
10
328.02249443359068
20
-219.00000000323331
42
0.41421356237309503
10
330.02249443359068
20
-217.00000000323331
10
330.02249443359096
20
-193.08000000323332
42
0.41421356237309503
10
328.02249443359074
20
-191.08000000323332
10
291.02249334878809
20
-191.08000000323332
42
-0.41421356237308982
10
289.02249334878809
20
-189.08000000323338
10
289.02249334878786
20
-171.07990444725729
42
-0.41421356237309503
10
291.02249334878786
20
-169.07990444725726
10
297.29992384023899
20
-169.07990444725721
42
0.41421356237309503
10
299.29992384023893
20
-167.07990444725721
10
299.29992384023814
20
-82.015977003720963
42
0.41421356237311846
10
297.29992384023797
20
-80.015977003720991
10
285.29992384023592
20
-80.015977003722
42
-0.41421356237309631
10
283.29992384023575
20
-78.01597700372217
10
283.29992384023524
20
-72.015977003721119
42
-0.41421356237311452
10
285.29992384023518
20
-70.015977003720948
10
328.02249443359079
20
-70.01597700371839
42
0.4142135623730937
10
330.02249443359085
20
-68.015977003720522
10
330.02249443359091
20
167.00001525554202
42
0.4142135623730846
10
328.02249443359085
20
169.00001525554202
10
232.79326817845262
20
169.00001525554649
42
0.34199871311964403
10
230.85677650534882
20
167.50001525554663
42
-0.34199871311964508
10
228.9202848322451
20
166.00001525554671
10
179.95203449221617
20
166.00001525554873
10
179.95203449221617
20
165.99957411843815
10
178.01992568109625
20
165.99957411843815
42
0.41421356237308982
10
176.01992568109625
20
163.99957411843818
10
176.01992568109387
20
55.999999996766164
42
-0.4142135623730937
10
174.01992568109387
20
53.999999996766206
10
172.02292571209537
20
53.999999996766249
42
0.41421356237309243
10
170.02292571209534
20
51.999999996766306
0
CIRCLE
5
101
100
AcDbEntity
8
0
100
AcDbCircle
10
319.82248960527079
20
127.42007229209949
30
-1.1521449294615849e-06
40
1.7000000000000171
210
-8.2201755531764685e-15
220
-7.9551512705390138e-24
230
1
0
CIRCLE
5
102
100
AcDbEntity
8
0
100
AcDbCircle
10
320.02291434768119
20
-50.079904447257164
30
-1.1521522125246264e-06
40
2.7000000000000313
210
3.5226552144097051e-14
220
-7.9551657412062836e-24
230
1
0
CIRCLE
5
103
100
AcDbEntity
8
0
100
AcDbCircle
10
320.02291434768097
20
-269.99990444725717
30
-1.1521522014223962e-06
40
2.7000000000000313
210
3.5226552144097051e-14
220
-7.9551658891177034e-24
230
1
0
ENDSEC
0
SECTION
2
OBJECTS
0
DICTIONARY
5
C
100
AcDbDictionary
3
ACAD_GROUP
350
D
3
ACAD_MLINESTYLE
350
17
0
DICTIONARY
5
D
100
AcDbDictionary
0
DICTIONARY
5
1A
330
C
100
AcDbDictionary
0
DICTIONARY
5
17
100
AcDbDictionary
0
ENDSEC
0
EOF
