0
SECTION
2
HEADER
9
$INSUNITS
70
4
9
$ACADVER
1
AC1014
9
$HANDSEED
5
FFFF
0
ENDSEC
0
SECTION
2
TABLES
0
TABLE
2
VPORT
5
8
100
AcDbSymbolTable
0
ENDTAB
0
TABLE
2
LTYPE
5
5
100
AcDbSymbolTable
0
LTYPE
5
14
100
AcDbSymbolTableRecord
100
AcDbLinetypeTableRecord
2
BYBLOCK
70
0
0
LTYPE
5
15
100
AcDbSymbolTableRecord
100
AcDbLinetypeTableRecord
2
BYLAYER
70
0
0
ENDTAB
0
TABLE
2
LAYER
5
2
100
AcDbSymbolTable
70
2
0
LAYER
5
50
100
AcDbSymbolTableRecord
100
AcDbLayerTableRecord
2
0
70
0
6
CONTINUOUS
0
ENDTAB
0
TABLE
2
STYLE
5
3
100
AcDbSymbolTable
70
1
0
STYLE
5
11
100
AcDbSymbolTableRecord
100
AcDbTextStyleTableRecord
2
STANDARD
70
0
0
ENDTAB
0
TABLE
2
VIEW
5
6
100
AcDbSymbolTable
70
0
0
ENDTAB
0
TABLE
2
UCS
5
7
100
AcDbSymbolTable
70
0
0
ENDTAB
0
TABLE
2
APPID
5
9
100
AcDbSymbolTable
70
2
0
APPID
5
12
100
AcDbSymbolTableRecord
100
AcDbRegAppTableRecord
2
ACAD
70
0
0
ENDTAB
0
TABLE
2
DIMSTYLE
5
A
100
AcDbSymbolTable
70
1
0
ENDTAB
0
TABLE
2
BLOCK_RECORD
5
1
100
AcDbSymbolTable
70
1
0
BLOCK_RECORD
5
1F
100
AcDbSymbolTableRecord
100
AcDbBlockTableRecord
2
*MODEL_SPACE
0
BLOCK_RECORD
5
1B
100
AcDbSymbolTableRecord
100
AcDbBlockTableRecord
2
*PAPER_SPACE
0
ENDTAB
0
ENDSEC
0
SECTION
2
BLOCKS
0
BLOCK
5
20
100
AcDbEntity
100
AcDbBlockBegin
2
*MODEL_SPACE
0
ENDBLK
5
21
100
AcDbEntity
100
AcDbBlockEnd
0
BLOCK
5
1C
100
AcDbEntity
100
AcDbBlockBegin
2
*PAPER_SPACE
0
ENDBLK
5
1D
100
AcDbEntity
100
AcDbBlockEnd
0
ENDSEC
0
SECTION
2
ENTITIES
0
LWPOLYLINE
5
100
100
AcDbEntity
8
0
100
AcDbPolyline
90
48
70
1
43
0.0
10
176.04278369763483
20
47.753358582455228
10
176.04278354110369
20
5.7500006136045512
42
0.41421356237309309
10
178.04278353365044
20
3.7500006061512914
10
328.02248681855986
20
3.7500000472317185
42
0.4142135623730947
10
330.02248682601311
20
5.7500000397783868
10
330.02248706079217
20
68.750038745176482
10
333.02248706079212
20
68.750038733996661
10
333.02248713532447
20
88.750038733996661
10
330.02248713532447
20
88.750038745176596
10
330.02248761978774
20
218.75003922200517
10
333.02248761978774
20
218.75003921082524
10
333.0224876943206
20
238.75003921082524
10
330.02248769432066
20
238.75003922200517
10
330.02248817878382
20
368.75003874517489
10
333.02248817878376
20
368.75003873399493
10
333.02248825331674
20
388.75003873399493
10
330.02248825331674
20
388.75003874517489
10
330.02248854026647
20
465.74961817479209
42
0.41421356237310542
10
328.02248854771972
20
467.7496181822454
10
221.02249976814807
20
467.74961858099562
10
221.02249977932786
20
470.74961858099857
10
201.02249977932789
20
470.74961865553109
10
201.02249976814807
20
467.74961865552814
10
99.022499768146162
20
467.74961903564559
10
99.022499779325983
20
470.74961903564855
10
79.022499779325997
20
470.74961911018136
10
79.022499768146162
20
467.7496191101784
10
-17.977500231854151
20
467.7496194716619
42
0.41421356237308982
10
-19.977500239307417
20
465.74961947911504
10
-19.977500526257153
20
388.75004004949801
10
-22.977500526257124
20
388.75004006067786
10
-22.97750060078986
20
368.75004006067786
10
-19.977500600789817
20
368.75004004949801
10
-19.977501085253238
20
238.75004052632832
10
-22.97750108525328
20
238.75004053750826
10
-22.977501159786016
20
218.75004053750826
10
-19.977501159785973
20
218.75004052632832
10
-19.977501644249429
20
88.750040049499745
10
-22.977501644249401
20
88.750040060679694
10
-22.977501718782705
20
68.750040060679694
10
-19.977501718782662
20
68.750040049499646
10
-19.977501953560832
20
5.7500012249017889
42
0.41421356237309764
10
-17.977501961014681
20
3.7500012174484976
10
93.04277963472299
20
3.7500008037371391
42
0.41421356237309537
10
95.042779642176271
20
5.7500007962631994
10
95.042779798707429
20
47.753358884312675
42
-0.41421356237309631
10
97.042779806160695
20
49.753358876859409
10
174.04278370508814
20
49.753358589908494
42
-0.41421356237309503
0
ENDSEC
0
SECTION
2
OBJECTS
0
DICTIONARY
5
C
100
AcDbDictionary
3
ACAD_GROUP
350
D
3
ACAD_MLINESTYLE
350
17
0
DICTIONARY
5
D
100
AcDbDictionary
0
DICTIONARY
5
1A
330
C
100
AcDbDictionary
0
DICTIONARY
5
17
100
AcDbDictionary
0
ENDSEC
0
EOF
